<?xml version="1.0" encoding="UTF-8" standalone="no"?>
<!DOCTYPE svg PUBLIC "-//W3C//DTD SVG 1.1//EN" "http://www.w3.org/Graphics/SVG/1.1/DTD/svg11.dtd">
<svg width="100%" height="100%" viewBox="0 0 2000 1556" version="1.1" xmlns="http://www.w3.org/2000/svg" xmlns:xlink="http://www.w3.org/1999/xlink" xml:space="preserve" xmlns:serif="http://www.serif.com/" style="fill-rule:evenodd;clip-rule:evenodd;stroke-linejoin:round;stroke-miterlimit:2;">
    <g transform="matrix(30.772,0,0,30.772,323.017,878.74)">
        <path d="M32.927,8.977L22,22L11.073,8.977C14.134,6.408 18.003,5 22,5C25.997,5 29.866,6.408 32.927,8.977ZM-5.271,-10.5L-10.497,-16.729C-1.392,-24.369 10.114,-28.557 22,-28.557C33.886,-28.557 45.392,-24.369 54.497,-16.729L49.271,-10.5C41.63,-16.912 31.974,-20.426 22,-20.426C12.026,-20.426 2.37,-16.912 -5.271,-10.5ZM4.373,0.993L0.145,-4.046C6.269,-9.184 14.007,-12 22,-12C29.993,-12 37.731,-9.184 43.855,-4.046L39.627,0.993C34.688,-3.151 28.447,-5.422 22,-5.422C15.553,-5.422 9.312,-3.151 4.373,0.993Z" style="fill:rgb(0,230,118);"/>
    </g>
</svg>
