<?xml version="1.0" encoding="UTF-8" standalone="no"?>
<!DOCTYPE svg PUBLIC "-//W3C//DTD SVG 1.1//EN" "http://www.w3.org/Graphics/SVG/1.1/DTD/svg11.dtd">
<svg width="100%" height="100%" viewBox="0 0 1865 1556" version="1.1" xmlns="http://www.w3.org/2000/svg" xmlns:xlink="http://www.w3.org/1999/xlink" xml:space="preserve" xmlns:serif="http://www.serif.com/" style="fill-rule:evenodd;clip-rule:evenodd;stroke-linejoin:round;stroke-miterlimit:2;">
    <g transform="matrix(86.4291,0,0,86.4291,-901.44,-432.146)">
        <path d="M32,9L32,15L30,15L30,9L32,9ZM32,17L32,19L30,19L30,17L32,17ZM28.048,9.158C26.155,8.331 24.097,7.895 22,7.895C18.449,7.895 15.011,9.146 12.291,11.429L10.43,9.211C13.672,6.491 17.768,5 22,5C24.923,5 27.782,5.712 30.339,7.048L30,7.048C28.922,7.048 28.048,7.922 28.048,9L28.048,9.158ZM28.082,15.362C26.355,13.988 24.212,13.237 22,13.237C19.705,13.237 17.483,14.045 15.724,15.521L14.219,13.727C16.399,11.897 19.154,10.895 22,10.895C24.135,10.895 26.22,11.459 28.048,12.514L28.048,15C28.048,15.124 28.06,15.245 28.082,15.362ZM25.891,18.363L22,23L18.109,18.363C19.2,17.449 20.577,16.947 22,16.947C23.423,16.947 24.8,17.449 25.891,18.363Z" style="fill:rgb(221,44,0);"/>
    </g>
</svg>
