<?xml version="1.0" encoding="UTF-8" standalone="no"?>
<!DOCTYPE svg PUBLIC "-//W3C//DTD SVG 1.1//EN" "http://www.w3.org/Graphics/SVG/1.1/DTD/svg11.dtd">
<svg width="100%" height="100%" viewBox="0 0 2000 1556" version="1.1" xmlns="http://www.w3.org/2000/svg" xmlns:xlink="http://www.w3.org/1999/xlink" xml:space="preserve" xmlns:serif="http://www.serif.com/" style="fill-rule:evenodd;clip-rule:evenodd;stroke-linejoin:round;stroke-miterlimit:2;">
    <path d="M1000,0C1429.31,0 1777.86,348.548 1777.86,777.862C1777.86,1207.18 1429.31,1555.72 1000,1555.72C570.686,1555.72 222.138,1207.18 222.138,777.862C222.138,348.548 570.686,0 1000,0ZM934,714.686L934,1145L865,1145L865,1216.69L1137.63,1216.69L1137.63,1145L1068.63,1145L1068.63,643L865,643L865,714.686L934,714.686ZM1000,305C943.705,305 898,350.705 898,407C898,463.295 943.705,509 1000,509C1056.3,509 1102,463.295 1102,407C1102,350.705 1056.3,305 1000,305Z" style="fill:white;"/>
</svg>
